PathFileType	4	(X/Y/Z)	C:\Users\86182\Documents\cortex\Trimmed_M4_L12.trc
DataRate	CameraRate	NumFrames	NumMarkers	Units	OrigDataRate	OrigDataStartFrame	OrigNumFrames
100.00	100.00	       113	2	mm	100.00	181	       901
Frame#	Time	gripper			box			
		X1	Y1	Z1	X2	Y2	Z2	

181	1.800	276.20712	149.31755	218.16241	277.97888	146.85419	83.24310	
182	1.810	276.11755	149.31422	218.59457	277.91916	146.85852	83.66077	
183	1.820	276.03983	149.31139	219.02669	277.87830	146.85504	84.07571	
184	1.830	275.99265	149.30681	219.45427	277.85321	146.84500	84.48894	
185	1.840	275.97272	149.30211	219.87834	277.84067	146.83319	84.90278	
186	1.850	275.97974	149.29855	220.29822	277.83710	146.82614	85.32166	
187	1.860	276.02161	149.29526	220.71178	277.83942	146.82858	85.74911	
188	1.870	276.09290	149.29198	221.12318	277.84634	146.84058	86.18484	
189	1.880	276.16931	149.29024	221.54236	277.85803	146.85799	86.62509	
190	1.890	276.22952	149.29155	221.97496	277.87531	146.87650	87.06557	
191	1.900	276.26767	149.29651	222.41794	277.89713	146.89435	87.50394	
192	1.910	276.28329	149.30573	222.86555	277.91904	146.91158	87.94012	
193	1.920	276.27545	149.31909	223.31378	277.93539	146.92815	88.37440	
194	1.930	276.25494	149.33330	223.75587	277.94315	146.94341	88.80482	
195	1.940	276.24872	149.34251	224.18086	277.94189	146.95589	89.22839	
196	1.950	276.27786	149.34340	224.58267	277.93170	146.96335	89.64534	
197	1.960	276.33438	149.33887	224.96886	277.91333	146.96408	90.06006	
198	1.970	276.39005	149.33482	225.35513	277.88916	146.95912	90.47717	
199	1.980	276.42584	149.33449	225.75253	277.86218	146.95244	90.89866	
200	1.990	276.44043	149.33784	226.16423	277.83386	146.94794	91.32459	
201	2.000	276.43121	149.34608	226.59265	277.80402	146.94695	91.75539	
202	2.010	276.38672	149.36275	227.04184	277.77298	146.94887	92.19246	
203	2.020	276.30743	149.38878	227.50996	277.74261	146.95341	92.63695	
204	2.030	276.21844	149.41930	227.98557	277.71414	146.96161	93.08791	
205	2.040	276.14713	149.44855	228.45578	277.68573	146.97476	93.54169	
206	2.050	276.09601	149.47600	228.91663	277.65262	146.99234	93.99348	
207	2.060	276.05197	149.50420	229.37067	277.61118	147.01070	94.43983	
208	2.070	276.01239	149.53239	229.81744	277.56299	147.02460	94.87971	
209	2.080	275.98175	149.55769	230.25436	277.51273	147.03053	95.31378	
210	2.090	275.94659	149.58109	230.68680	277.46271	147.02887	95.74313	
211	2.100	275.87552	149.60777	231.12820	277.41193	147.02258	96.16767	
212	2.110	275.74750	149.64165	231.58775	277.35974	147.01468	96.58583	
213	2.120	275.57245	149.68130	232.06155	277.30887	147.00713	96.99688	
214	2.130	275.38312	149.72179	232.53812	277.26382	147.00076	97.40348	
215	2.140	275.21283	149.75887	233.00812	277.22739	146.99579	97.81128	
216	2.150	275.08234	149.79082	233.46713	277.19986	146.99280	98.22511	
217	2.160	275.00034	149.81747	233.91400	277.18130	146.99298	98.64545	
218	2.170	274.96649	149.83925	234.35052	277.17273	146.99681	99.06940	
219	2.180	274.97440	149.85667	234.78073	277.17456	147.00348	99.49476	
220	2.190	275.01550	149.87009	235.20779	277.18588	147.01173	99.92273	
221	2.200	275.08206	149.87975	235.63284	277.20578	147.02081	100.35693	
222	2.210	275.16617	149.88593	236.05656	277.23364	147.03040	100.79951	
223	2.220	275.25644	149.88989	236.48117	277.26743	147.03987	101.24816	
224	2.230	275.33524	149.89490	236.91150	277.30338	147.04863	101.69797	
225	2.240	275.38159	149.90546	237.35432	277.33777	147.05702	102.14679	
226	2.250	275.38376	149.92386	237.81241	277.36810	147.06592	102.59641	
227	2.260	275.34906	149.94809	238.27972	277.39218	147.07585	103.04776	
228	2.270	275.29489	149.97435	238.74673	277.40747	147.08679	103.49715	
229	2.280	275.23547	150.00006	239.20729	277.41110	147.09819	103.93829	
230	2.290	275.17886	150.02431	239.65872	277.40085	147.10909	104.36771	
231	2.300	275.12885	150.04674	240.09979	277.37766	147.11862	104.78735	
232	2.310	275.08624	150.06622	240.53082	277.34711	147.12653	105.20197	
233	2.320	275.05042	150.08083	240.95367	277.31601	147.13297	105.61528	
234	2.330	275.01999	150.08939	241.37079	277.28745	147.13808	106.02826	
235	2.340	274.99237	150.09229	241.78574	277.26074	147.14169	106.44007	
236	2.350	274.96384	150.09042	242.20300	277.23529	147.14403	106.85037	
237	2.360	274.93179	150.08397	242.62532	277.21323	147.14601	107.26134	
238	2.370	274.89783	150.07249	243.05222	277.19894	147.14822	107.67686	
239	2.380	274.86786	150.05643	243.48270	277.19577	147.15002	108.09955	
240	2.390	274.84753	150.03809	243.91718	277.20364	147.15085	108.52844	
241	2.400	274.83792	150.02065	244.35562	277.22015	147.15134	108.96076	
242	2.410	274.83600	150.00540	244.79651	277.24237	147.15257	109.39502	
243	2.420	274.83844	149.99095	245.23795	277.26764	147.15506	109.83171	
244	2.430	274.84268	149.97527	245.67908	277.29355	147.15829	110.27119	
245	2.440	274.84485	149.95840	246.12010	277.31796	147.16078	110.71171	
246	2.450	274.84055	149.94229	246.56134	277.33786	147.16090	111.14924	
247	2.460	274.82745	149.92818	247.00116	277.35010	147.15854	111.57944	
248	2.470	274.80640	149.91513	247.43539	277.35336	147.15541	112.00075	
249	2.480	274.78061	149.90187	247.86093	277.34879	147.15309	112.41573	
250	2.490	274.75494	149.88959	248.27837	277.33829	147.15085	112.82761	
251	2.500	274.73312	149.88147	248.69005	277.32309	147.14665	113.23590	
252	2.510	274.71472	149.87903	249.09767	277.30307	147.13942	113.63785	
253	2.520	274.69669	149.88052	249.50247	277.27747	147.13040	114.03399	
254	2.530	274.67813	149.88348	249.90651	277.24664	147.12297	114.42969	
255	2.540	274.66147	149.88678	250.31293	277.21375	147.12045	114.83102	
256	2.550	274.64932	149.89011	250.72507	277.18402	147.12334	115.24117	
257	2.560	274.64206	149.89359	251.14482	277.16153	147.12907	115.66020	
258	2.570	274.63843	149.89781	251.57117	277.14682	147.13545	116.08595	
259	2.580	274.63776	149.90332	252.00125	277.13763	147.14299	116.51498	
260	2.590	274.64075	149.91029	252.43329	277.13150	147.15335	116.94514	
261	2.600	274.64825	149.91864	252.86758	277.12799	147.16647	117.37690	
262	2.610	274.65985	149.92810	253.30450	277.12833	147.18057	117.81165	
263	2.620	274.67358	149.93805	253.74226	277.13229	147.19415	118.24886	
264	2.630	274.68719	149.94762	254.17804	277.13672	147.20735	118.68640	
265	2.640	274.69946	149.95609	254.61102	277.13785	147.22163	119.12331	
266	2.650	274.71017	149.96315	255.04306	277.13385	147.23923	119.56055	
267	2.660	274.71912	149.96884	255.47592	277.12408	147.26186	119.99898	
268	2.670	274.72498	149.97377	255.90875	277.10773	147.28908	120.43796	
269	2.680	274.72617	149.97920	256.33887	277.08453	147.31841	120.87538	
270	2.690	274.72250	149.98683	256.76489	277.05682	147.34682	121.30837	
271	2.700	274.71606	149.99763	257.18799	277.02817	147.37236	121.73502	
272	2.710	274.70990	150.01053	257.60974	277.00085	147.39417	122.15617	
273	2.720	274.70584	150.02299	258.02969	276.97586	147.41180	122.57487	
274	2.730	274.70395	150.03355	258.44644	276.95407	147.42479	122.99346	
275	2.740	274.70325	150.04260	258.86057	276.93597	147.43245	123.41176	
276	2.750	274.70316	150.05092	259.27484	276.92154	147.43480	123.82903	
277	2.760	274.70496	150.05817	259.69220	276.90979	147.43373	124.24721	
278	2.770	274.71097	150.06331	260.11420	276.89957	147.43242	124.67001	
279	2.780	274.72238	150.06589	260.54095	276.89117	147.43315	125.09942	
280	2.790	274.73749	150.06712	260.97186	276.88705	147.43544	125.53420	
281	2.800	274.75363	150.06917	261.40683	276.89008	147.43674	125.97196	
282	2.810	274.76965	150.07301	261.84586	276.89972	147.43547	126.41228	
283	2.820	274.78595	150.07800	262.28802	276.91083	147.43311	126.85717	
284	2.830	274.80304	150.08371	262.73083	276.91702	147.43248	127.30824	
285	2.840	274.82022	150.09108	263.17154	276.91544	147.43503	127.76366	
286	2.850	274.83524	150.10118	263.60870	276.90680	147.43997	128.21823	
287	2.860	274.84573	150.11375	264.04187	276.89120	147.44545	128.66724	
288	2.870	274.85132	150.12683	264.47070	276.86649	147.44995	129.10925	
289	2.880	274.85339	150.13794	264.89481	276.83109	147.45329	129.54434	
290	2.890	274.85272	150.14615	265.31396	276.78619	147.45618	129.97177	
291	2.900	274.84872	150.15280	265.72861	276.73474	147.45924	130.39091	
292	2.910	274.84018	150.15968	266.14005	276.67966	147.46266	130.80328	
293	2.920	274.82608	150.16672	266.54987	276.62375	147.46571	131.21268	
